<svg width="2000" height="2000" xmlns="http://www.w3.org/2000/svg" version="1.1">
 <defs>
  <filter id="svg_1_blur">
   <feGaussianBlur stdDeviation="0" in="SourceGraphic"/>
  </filter>
 </defs>
 <g>
  <title>Layer 1</title>
  <path filter="url(#svg_1_blur)" id="svg_1" fill="#666" d="m1663,325c0.29376,18.53429 -0.56651,36.99437 -1.46741,55.49927c-0.22434,4.6329 -0.44248,9.2661 -0.66148,13.89925c-0.39033,8.23957 -0.7846,16.47895 -1.18139,24.71821c-0.60276,12.51666 -1.19935,25.03361 -1.79489,37.55061c-1.05832,22.23909 
  -2.12203,44.47792 -3.18823,66.71663c-1.19234,24.8702 -2.38202,49.74053 -3.56945,74.61096c-0.08048,1.6856 -0.16097,3.3712 -0.24145,5.0568c-0.32732,6.85554 -0.65463,13.71108 -0.98193,20.56662c-3.08838,64.68798 -6.18197,129.37572 -9.279,194.06329c-0.04545,0.94915 -0.09089,1.8983 -0.13771,2.87622c-1.15624,24.15054 -2.31263,48.30108 -3.46905,72.45161c-1.03373,21.58807 -2.0674,43.17614 -3.10101,64.76421c-0.04657,0.97273 -0.09314,1.94546 -0.14113,2.94766c-1.07072,22.36318 -2.14133,44.72636 -3.21161,67.08956c-0.04535,0.94767 -0.09071,1.89533 -0.13744,2.8717c-0.4535,9.47597 -0.90699,18.95194 -1.36046,28.42791c-0.95539,19.96457 -1.91109,39.92913 -2.86754,59.89365c-0.69051,14.41343 -1.38057,28.82688 -2.07024,43.24034c-0.38587,8.06429 -0.77197,16.12857 -1.15864,24.19282c-1.45808,30.41192 -2.90943,60.82403 -4.29818,91.23921c-0.17607,3.8537 -0.35273,7.70738 -0.52961,11.56105c-0.11354,2.47511 -0.22708,4.95023 -0.3406,7.42534c-0.05489,1.19665 -0.10979,2.3933 -0.16635,3.62621c-0.31259,6.82624 -0.62038,13.65266 -0.92404,20.4793c-0.18382,4.11081 -0.37182,8.22143 -0.56085,12.33201c-0.08409,1.84852 -0.16641,3.69712 -0.24662,5.54582c-0.41446,9.54007 -0.99174,19.04602 -1.86872,28.55579c-0.07667,0.85058 -0.15335,1.70116 -0.23234,2.57751c-2.73315,28.08436 -15.46274,55.20939 -32.81263,77.22044c-0.72574,0.93457 -1.45148,1.86914 -2.19922,2.83203c-5.89176,7.39379 -12.29423,14.31683 -18.80078,21.16797c-0.78504,0.82758 -1.57008,1.65516 -2.37891,2.50781c-5.50516,5.65289 -11.45862,10.57642 -17.62109,15.49219c-1.11228,0.92385 -2.22289,1.84972 -3.33203,2.77734c-61.75658,51.21673 -146.21513,76.41733 -225.73047,76.47266c-0.87778,0.00067 -1.75556,0.00135 -2.65994,0.00204c-54.7837,-0.06645 -115.93165,-12.7452 -157.1799,-51.31063c-2.19527,-2.08822 -2.19527,-2.08822 -5.16016,-4.31641c-4.55649,-4.07176 -8.18818,-8.8154 -11.9375,-13.625c-0.68449,-0.85723 -1.36898,-1.71445 -2.07422,-2.59766c-18.88907,-24.60403 -25.16416,-55.94075 -21.20288,-86.354c5.16486,-33.0536 22.74131,-62.4187 45.10132,-86.68506c1.48137,-1.60903 2.94169,-3.23764 4.38281,-4.88281c5.23774,-5.97158 10.75929,-11.31903 16.79297,-16.48047c0.56622,-0.49452 1.13244,-0.98903 1.71582,-1.49854c69.22062,-60.27187 167.27556,-88.60664 258.13403,-82.98583c38.60077,2.76233 80.46853,11.69662 113.15015,33.48437c-0.00774,-0.90132 -0.01549,-1.80263 -0.02347,-2.73126c-0.04488,-9.32355 0.22715,-18.59932 0.69095,-27.91278c0.07297,-1.51989 0.14563,-3.03979 0.21799,-4.55971c0.19798,-4.13931 0.40038,-8.2784 0.60355,-12.41746c0.2197,-4.49276 0.43513,-8.98572 0.65107,-13.47866c0.37595,-7.81056 0.75444,-15.62099 1.13466,-23.43135c0.6091,-12.51294 1.21305,-25.02612 1.81631,-37.53934c0.20866,-4.3268 0.41736,-8.65359 0.62609,-12.98039c0.05226,-1.0833 0.10451,-2.1666 0.15835,-3.28274c0.377,-7.81367 0.75475,-15.6273 1.13282,-23.44092c2.08992,-43.19645 4.15646,-86.394 6.21993,-129.59172c0.68968,-14.43707 1.38063,-28.87408 2.07255,-43.31104c0.46495,-9.70129 0.92975,-19.40258 1.39451,-29.10388c0.05005,-1.04468 0.1001,-2.08935 0.15167,-3.16569c1.25835,-26.26773 2.50936,-52.53579 3.7457,-78.80457c0.25639,-5.44631 0.51352,-10.89259 0.77123,-16.33884c0.03491,-0.73795 0.06983,-1.47591 0.10581,-2.23623c0.13731,-2.90158 0.27465,-5.80315 0.4121,-8.70472c0.41418,-8.74338 0.82455,-17.48692 1.23077,-26.23068c0.22192,-4.75775 0.44742,-9.51534 0.67405,-14.27287c0.10184,-2.15411 0.20211,-4.30829 0.30068,-6.46256c0.1316,-2.87274 0.2686,-5.74517 0.40706,-8.61758c0.03683,-0.83385 0.07365,-1.6677 0.1116,-2.52682c0.27988,-5.62992 0.27988,-5.62992 1.39402,-7.85819c-1.86383,0.4235 -1.86383,0.4235 -3.7653,0.85556c-8.58196,1.70767 -17.29967,2.49781 -25.98983,3.45548c-2.04366,0.22848 -4.08728,0.45735 -6.13086,0.68656c-4.47077,0.50058 -8.94184,0.99833 -13.41315,1.49396c-7.4184,0.82232 -14.8361,1.65079 -22.25376,2.47974c-11.03366,1.23237 -22.06766,2.46163 -33.10189,3.68889c-17.12882,1.90517 -34.25699,3.81608 -51.38504,5.72819c-7.14617,0.79775 -14.29235,1.59535 -21.43853,2.39295c-0.80692,0.09006 -1.61383,0.18012 -2.4452,0.27292c-11.85601,1.32328 -23.7121,2.6458 -35.56825,3.96779c-61.17486,6.82117 -122.34767,13.66064 -183.51991,20.5053c-1.20104,0.13439 -2.40207,0.26878 -3.6395,0.40723c-23.08086,2.58256 -46.1617,5.16532 -69.24252,7.74829c-30.11822,3.3705 -60.23654,6.74011 -90.35495,10.10896c-14.93183,1.67019 -29.86363,3.34063 -44.79543,5.01111c-11.8153,1.32182 -23.63063,2.64345 -35.44598,3.96483c-7.98621,0.89316 -15.97239,1.78662 -23.95855,2.68026c-4.70411,0.52637 -9.40824,1.05258 -14.1124,1.57842c-16.8423,1.8827 -33.68443,3.76612 -50.52146,5.69539c-1.96157,0.22471 -3.92318,0.44899 -5.8848,0.67326c-5.73835,0.65615 -11.47633,1.31515 -17.21353,1.98128c-1.92607,0.22099 -3.85216,0.44185 -5.77827,0.66256c-0.84437,0.09944 -1.68874,0.19889 -2.5587,0.30136c-0.77637,0.08829 -1.55273,0.17659 -2.35262,0.26756c-0.65893,0.07644 -1.31785,0.15288 -1.99674,0.23163c-2.71482,0.20432 -5.4115,0.18485 -8.13283,0.16052c-0.02149,0.69046 -0.04297,1.38092 -0.06511,2.09231c-0.63582,20.10847 -1.51842,40.1985 -2.49458,60.29287c-0.21232,4.38042 -0.42225,8.76096 -0.63248,13.14148c-0.36657,7.63174 -0.73449,15.26343 -1.10335,22.89506c-0.59784,12.37015 -1.19283,24.74044 -1.78738,37.11075c-0.20791,4.32521 -0.41583,8.65042 -0.62375,12.97563c-0.05216,1.08516 -0.10432,2.17033 -0.15807,3.28837c-0.37701,7.84262 -0.7544,15.68523 -1.13192,23.52783c-1.56723,32.5621 -3.12559,65.12463 -4.67865,97.68742c-0.05577,1.16918 -0.11153,2.33836 -0.16899,3.54297c-0.45341,9.50648 -0.90679,19.01296 -1.36011,28.51945c-0.85653,17.96158 -1.7141,35.92311 -2.57262,53.8846c-0.08532,1.78506 -0.08532,1.78506 -0.17236,3.60618c-0.57545,12.03897 -1.15103,24.07792 -1.72669,36.11687c-0.28842,6.03218 -0.57682,12.06435 -0.8652,18.09653c-0.05721,1.19669 -0.11442,2.39338 -0.17337,3.62634c-0.9472,19.81435 -1.89206,39.62881 -2.8362,59.44331c-0.99,20.77583 -1.98251,41.55154 -2.97733,62.32714c-0.60386,12.6124 -1.20584,25.22488 -1.80519,37.83749c-0.40602,8.54018 -0.81448,17.08024 -1.22483,25.62021c-0.23488,4.88964 -0.46875,9.77933 -0.69965,14.66916c-0.79623,16.84637 -1.59777,33.69214 -2.72729,50.52005c-0.0688,1.08686 -0.13759,2.17372 -0.20847,3.29351c-3.40656,47.72927 -34.02595,88.67368 -68.92311,119.28291c-59.75477,50.81556 -142.09696,82.24465 -220.55908,82.83984c-1.07592,0.0098 -2.15184,0.01959 -3.26036,0.02968c-64.43965,0.46597 -128.36561,-10.80697 -177.06386,-56.26796c-20.81536,-20.52978 -34.0379,-48.6612 -34.38062,-77.97363c0.00186,-1.30808 0.00371,-2.61616 0.00562,-3.96387c0.00088,-0.68058 0.00175,-1.36117 0.00266,-2.06238c0.20155,-47.65114 26.94295,-85.96467 59.51712,-118.44983c6.4003,-6.28069 12.92929,-12.08654 20.19262,-17.34082c1.74686,-1.27076 3.46508,-2.57454 5.18213,-3.88525c52.69593,-39.92224 118.09171,-62.5534 183.48047,-69.32422c0.92265,-0.09571 1.84529,-0.19143 2.7959,-0.29004c26.94056,-2.43014 55.52462,-2.23302 82.2041,2.29004c1.15242,0.19336 2.30484,0.38672 3.49219,0.58594c29.05866,5.06183 57.15073,14.09105 82.50781,29.41406c0.04769,-1.03915 0.09537,-2.07831 0.1445,-3.14895c2.6288,-57.2666 5.30179,-114.53096 8.03421,-171.7927c0.03471,-0.72742 0.06942,-1.45484 0.10518,-2.2043c0.91686,-19.21403 1.8353,-38.42799 2.75424,-57.64192c0.55076,-11.51587 1.10113,-23.03176 1.65127,-34.54767c0.03994,-0.83606 0.07988,-1.67213 0.12103,-2.53352c0.16241,-3.39976 0.32483,-6.79952 0.48723,-10.19928c1.46684,-30.70585 2.93444,-61.41166 4.40254,-92.11745c1.31779,-27.56215 2.63514,-55.12433 3.95188,-82.68653c0.16823,-3.52156 0.33647,-7.04312 0.50471,-10.56468c0.12596,-2.63659 0.25192,-5.27319 0.37788,-7.90978c0.04152,-0.86906 0.08304,-1.73812 0.12581,-2.63351c0.0838,-1.75395 0.16759,-3.5079 0.25138,-5.26186c2.24851,-47.06572 4.49728,-94.13143 6.74964,-141.19697c0.03917,-0.81855 0.07834,-1.63709 0.1187,-2.48045c0.7349,-15.35661 1.46988,-30.71321 2.20502,-46.06981c0.44467,-9.28896 0.88931,-18.57792 1.33387,-27.86688c0.03587,-0.7494 0.07173,-1.4988 0.10869,-2.2709c1.15531,-24.14011 2.3076,-48.28035 3.45788,-72.42069c0.87439,-18.34988 1.75058,-36.69967 2.62857,-55.04938c0.52686,-11.01274 1.052,-22.02557 1.57458,-33.03852c0.34089,-7.18072 0.68394,-14.36134 1.02884,-21.54187c0.19283,-4.01573 0.38469,-8.03151 0.57378,-12.04742c0.16948,-3.59911 0.34175,-7.19808 0.51632,-10.79696c0.09079,-1.88684 0.17856,-3.77382 0.2662,-5.66081c0.59322,-12.10397 0.59322,-12.10397 1.52605,-17.31719c3.03555,-1.51777 6.29753,-1.58401 9.63419,-1.94722c0.80483,-0.09068 1.60966,-0.18137 2.43889,-0.2748c2.73908,-0.30766 5.47874,-0.60978 8.21842,-0.91201c1.98681,-0.22202 3.97357,-0.44437 5.9603,-0.66704c4.37921,-0.49002 8.75869,-0.97754 13.13838,-1.46326c7.29392,-0.80894 14.58722,-1.62332 21.88048,-2.43818c10.91689,-1.21915 21.83407,-2.43562 32.75143,-3.65043c17.13024,-1.9062 34.25992,-3.8175 51.38944,-5.73011c2.35822,-0.26331 4.71644,-0.52661 7.07466,-0.78991c6.50086,-0.72582 13.00173,-1.45165 19.50259,-2.17753c9.43393,-1.05337 18.8679,-2.10642 28.3019,-3.15913c63.64632,-7.10209 127.28987,-14.22873 190.93263,-21.36266c3.81841,-0.42802 7.63683,-0.85603 11.45524,-1.28404c29.57053,-3.31459 59.14101,-6.62962 88.71147,-9.94486c26.37689,-2.9572 52.7538,-5.91414 79.13074,-8.87084c4.88868,-0.548 9.77737,-1.09601 14.66605,-1.64404c24.93592,-2.79533 49.8719,-5.59014 74.80815,-8.38251c9.11811,-1.02105 18.2362,-2.04223 27.35429,-3.06344c2.24046,-0.25092 4.48092,-0.50184 6.72139,-0.75274c29.82164,-3.33971 59.6421,-6.6897 89.46123,-10.05175c12.4487,-1.40339 24.89781,-2.80315 37.34697,-4.20244c9.66197,-1.08621 19.32354,-2.17579 28.9846,-3.27005c6.40301,-0.72496 12.80644,-1.44602 19.21024,-2.1639c3.63027,-0.40709 7.26031,-0.81596 10.88981,-1.22984c3.89552,-0.44418 7.79197,-0.87982 11.68855,-1.31463c1.11701,-0.12881 2.23403,-0.25762 3.38489,-0.39033c6.35158,-0.70023 12.57352,-1.02279 18.96307,-0.86231zm-86.30251,132.16483c-0.98038,0.12579 -1.96076,0.25159 -2.97085,0.3812c-3.31992,0.42632 -6.63961,0.85447 -9.95931,1.28258c-2.38608,0.30679 -4.77218,0.61346 -7.15829,0.92004c-5.19518,0.66775 -10.39025,1.33628 -15.58524,2.00551c-7.6735,0.98852 -15.34719,1.97561 -23.02092,2.96239c-12.82621,1.6494 -25.65226,3.29999 -38.47822,4.95127c-12.76035,1.64283 
  -25.52076,3.28515 -38.28125,4.92682c-0.79607,0.10241 -1.59213,0.20483 -2.41232,0.31035c-3.22611,0.41504 -6.45222,0.83009 -9.67834,1.24512c-31.81682,4.09323 -63.63343,8.18812 -95.44994,12.28382c-3.16178,0.40701 -6.32356,0.81403 -9.48534,1.22104c-0.77311,0.09952 -1.54623,0.19904 -2.34276,0.30158c-15.95673,2.05408 -31.91351,4.10766 -47.87032,6.16113c-50.85779,6.5449 -101.71523,13.0925 -152.57216,19.64416c-29.26252,3.76972 -58.52528,7.53755 -87.78829,11.30345c-16.621,2.13899 -33.24197,4.27818 -49.86281,6.41837c-1.10961,0.14288 -1.10961,0.14288 -2.24163,0.28864c-7.42739,0.9564 -14.85478,1.91287 -22.28215,2.86941c-3.67791,0.47366 -7.35581,0.9473 -11.03372,1.42094c-0.72444,0.0933 -1.44889,0.18659 -2.19529,0.28271c-11.57678,1.49082 -23.1537,2.98047 -34.73069,4.46965c-11.54028,1.48449 -23.0804,2.97027 -34.62035,4.4573c-6.27582,0.80866 -12.55171,1.61672 -18.82779,2.42328c-5.7669,0.74113 -11.5336,1.48387 -17.30013,2.2279c-2.09427,0.26992 -4.18862,0.53924 -6.28305,0.80792c-2.83827,0.36419 -5.67626,0.73052 -8.51419,1.0974c-0.82255,0.10502 -1.6451,0.21004 -2.49257,0.31824c-3.78743,0.49187 -7.52485,1.03678 -11.25957,1.85295c-0.65623,13.30065 -1.30847,26.60148 -1.95576,39.90257c-0.30074,6.17751 -0.60281,12.35495 -0.90801,18.53224c-0.29498,5.97155 -0.58635,11.94326 -0.87532,17.9151c-0.11036,2.26799 -0.22198,4.53591 -0.33493,6.80376c-0.15909,3.1987 -0.31353,6.3976 -0.467,9.59657c-0.04675,0.91855 -0.0935,1.8371 -0.14167,2.78348c-0.36756,7.82535 -0.36111,15.63395 -0.31731,23.46628c40.17816,-4.99504 80.34545,-10.06788 120.50115,-15.24082c7.32898,-0.94408 14.65813,-1.88676 21.98729,-2.82945c14.37617,-1.84913 28.75217,-3.69956 43.1281,-5.55057c12.60528,-1.62301 25.21063,-3.24548 37.81605,-4.86747c0.84644,-0.10892 1.69288,-0.21783 2.56497,-0.33005c3.44031,-0.44268 6.88062,-0.88536 10.32093,-1.32804c91.19755,-11.73484 182.39348,-23.48218 353.28398,-45.49973c4.2258,-0.54457 8.45161,-1.08913 12.67742,-1.63369c4.13974,-0.53347 8.27948,-1.06694 12.41922,-1.60041c0.80784,-0.10411 1.61567,-0.20821 2.44799,-0.31547c9.24044,-1.19078 18.48087,-2.38163 27.72128,-3.57264c3.56367,-0.45933 7.12734,-0.91862 10.69102,-1.37785c1.40348,-0.18086 2.80696,-0.36171 4.21044,-0.54257c0.68982,-0.08889 1.37963,-0.17778 2.09035,-0.26937c4.09201,-0.52734 8.18398,-1.05497 12.27591,-1.58284c14.65402,-1.89027 29.30897,-3.77292 43.96544,-5.64398c4.90157,-0.626 9.80298,-1.25321 14.70438,-1.88044c4.70737,-0.60223 9.415,-1.20233 14.12284,-1.80084c2.89711,-0.36881 5.79397,-0.73959 8.69076,-1.11092c1.98992,-0.25445 3.98014,-0.50646 5.97038,-0.75842c1.18696,-0.15251 2.37393,-0.30503 3.59686,-0.46216c1.03193,-0.13154 2.06385,-0.26309 3.12705,-0.39862c2.2861,-0.34353 4.45949,-0.79161 6.68619,-1.40365c0.93842,-5.77112 1.30609,-11.4847 1.57251,-17.32227c0.04891,-1.0139 0.09783,-2.0278 0.14822,-3.07243c0.16014,-3.33704 0.3155,-6.67428 0.47068,-10.01155c0.11043,-2.32736 0.2211,-4.65472 0.33201,-6.98206c0.23148,-4.87193 0.46072,-9.74396 0.68825,-14.61608c0.29137,-6.23766 0.58711,-12.4751 0.88439,-18.71248c0.22867,-4.80408 0.45561,-9.60825 0.68197,-14.41245c0.10845,-2.29967 0.2173,-4.59932 0.32656,-6.89895c0.15243,-3.21642 0.30268,-6.43292 0.45229,-9.64946c0.04519,-0.94567 0.09037,-1.89133 0.13692,-2.86565c0.22201,-4.8254 0.35306,-9.62613 0.3062,-14.45662c-3.78626,0 -7.55095,0.67956 -11.30251,1.16483z"/>
 </g>
</svg>